# xmcd CD database file generated by Grip 2.94
#
# Track frame offsets:
#       150
#       17174
#       32044
#       45302
#       63676
#       91083
#       106201
#       124368
#       146548
#       164156
#
# Disc length: 2435 seconds
#
# Revision: 3
# Processed by: cddbd v1.4b41PL1 Copyright (c) Steve Scherf et al.
# Submitted via: Grip 2.94
#
DISCID=8709810a
DTITLE=Tejay Holandes - Learning
DYEAR=1900
DGENRE=
TTITLE0=Walk Your Boots Outside The Door
TTITLE1=Wild Turkey Chasers
TTITLE2=Johnny Black
TTITLE3=Learning
TTITLE4=I'll Make It Easy
TTITLE5=You Won't Break Me
TTITLE6=Man Wanted (Must Be Genuine)
TTITLE7=Second Best - Best Man
TTITLE8=Joint With A Jukebox
TTITLE9=Old Man's Tale
EXTD=
EXTT0=
EXTT1=
EXTT2=
EXTT3=
EXTT4=
EXTT5=
EXTT6=
EXTT7=
EXTT8=
EXTT9=
PLAYORDER=
